# xmcd
#
# Track frame offsets: 
#        183
#        16755
#        27200
#        42380
#        57015
#        71038
#        83530
#        96550
#        110703
#        123705
#        135998
#        149075
#        162575
#        184438
#        198620
#        211538
#        224793
#        238760
#
# Disc length: 3331 seconds
#
# Revision: 1
# Processed by: cddbd v1.5.2PL0 Copyright (c) Steve Scherf et al.
# Submitted via: ExactAudioCopy v0.95a5
#
DISCID=180d0112
DTITLE=Muddy Waters - Eresco Records
DYEAR=1900
DGENRE=
TTITLE0=Blow Wind Blow
TTITLE1=Sugar Sweet
TTITLE2=Walkin' Through The Park
TTITLE3=Baby Please Don't Go
TTITLE4=I Wan't You To Love Me
TTITLE5=Got My Mojo Working
TTITLE6=Hoochie Coochie
TTITLE7=Rolling Stone
TTITLE8=Louisiana Blues
TTITLE9=Long Distance Call
TTITLE10=I Just Want To Make To Love You
TTITLE11=She Moves Me
TTITLE12=Twenty Four Hours
TTITLE13=Forty Days And Forty Nights
TTITLE14=All Aboard
TTITLE15=You Can't Lose What You Ain't Never Had
TTITLE16=I'm Ready
TTITLE17=I Can't Call Her Sugar
EXTD=Eresco Records-AD 314209
EXTT0=21-22-23 ApriI 1969/Chicago
EXTT1=21-22-23 ApriI 1969/Chicago
EXTT2=21-22-23 ApriI 1969/Chicago
EXTT3=4.Mai 1953/Chicago
EXTT4=24 Septembre 1953/Chicago
EXTT5=3 Juillet 1960/Newport
EXTT6=1 Janvier 1954/Chicago
EXTT7=Februar 1950/Chicago
EXTT8=23 Octobre 1950
EXTT9=23 Janvier 1951/Chicago
EXTT10=13 Avril 1954/Chicago
EXTT11=11 Juillet 1951/Chicago
EXTT12=21-22-23 ApriI 1969/Chicago
EXTT13=21-22-23 ApriI 1969/Chicago
EXTT14=21-22-23 ApriI 1969/Chicago
EXTT15=19. ApriI 1964/Chicago
EXTT16=1er Septembre 1954/Chicago)
EXTT17=Octobre 1955
PLAYORDER=
